
<svg width="100%" height="100%" viewBox="0 0 100 100" xmlns="http://www.w3.org/2000/svg" overflow="hidden" >
  <g>
  <path d="M 50 50 L 250 50 L 243.18516525781365 101.76380902050414" fill="#f7f7f7" transform-origin="50 50" transform="rotate(0, 0, 0)" /><path d="M 50 50 L 250 50 L 243.18516525781365 101.76380902050414" fill="#FFFFFF" transform-origin="50 50" transform="rotate(15, 0, 0)" /><path d="M 50 50 L 250 50 L 243.18516525781365 101.76380902050414" fill="#f7f7f7" transform-origin="50 50" transform="rotate(30, 0, 0)" /><path d="M 50 50 L 250 50 L 243.18516525781365 101.76380902050414" fill="#FFFFFF" transform-origin="50 50" transform="rotate(45, 0, 0)" /><path d="M 50 50 L 250 50 L 243.18516525781365 101.76380902050414" fill="#f7f7f7" transform-origin="50 50" transform="rotate(60, 0, 0)" /><path d="M 50 50 L 250 50 L 243.18516525781365 101.76380902050414" fill="#FFFFFF" transform-origin="50 50" transform="rotate(75, 0, 0)" /><path d="M 50 50 L 250 50 L 243.18516525781365 101.76380902050414" fill="#f7f7f7" transform-origin="50 50" transform="rotate(90, 0, 0)" /><path d="M 50 50 L 250 50 L 243.18516525781365 101.76380902050414" fill="#FFFFFF" transform-origin="50 50" transform="rotate(105, 0, 0)" /><path d="M 50 50 L 250 50 L 243.18516525781365 101.76380902050414" fill="#f7f7f7" transform-origin="50 50" transform="rotate(120, 0, 0)" /><path d="M 50 50 L 250 50 L 243.18516525781365 101.76380902050414" fill="#FFFFFF" transform-origin="50 50" transform="rotate(135, 0, 0)" /><path d="M 50 50 L 250 50 L 243.18516525781365 101.76380902050414" fill="#f7f7f7" transform-origin="50 50" transform="rotate(150, 0, 0)" /><path d="M 50 50 L 250 50 L 243.18516525781365 101.76380902050414" fill="#FFFFFF" transform-origin="50 50" transform="rotate(165, 0, 0)" /><path d="M 50 50 L 250 50 L 243.18516525781365 101.76380902050414" fill="#f7f7f7" transform-origin="50 50" transform="rotate(180, 0, 0)" /><path d="M 50 50 L 250 50 L 243.18516525781365 101.76380902050414" fill="#FFFFFF" transform-origin="50 50" transform="rotate(195, 0, 0)" /><path d="M 50 50 L 250 50 L 243.18516525781365 101.76380902050414" fill="#f7f7f7" transform-origin="50 50" transform="rotate(210, 0, 0)" /><path d="M 50 50 L 250 50 L 243.18516525781365 101.76380902050414" fill="#FFFFFF" transform-origin="50 50" transform="rotate(225, 0, 0)" /><path d="M 50 50 L 250 50 L 243.18516525781365 101.76380902050414" fill="#f7f7f7" transform-origin="50 50" transform="rotate(240, 0, 0)" /><path d="M 50 50 L 250 50 L 243.18516525781365 101.76380902050414" fill="#FFFFFF" transform-origin="50 50" transform="rotate(255, 0, 0)" /><path d="M 50 50 L 250 50 L 243.18516525781365 101.76380902050414" fill="#f7f7f7" transform-origin="50 50" transform="rotate(270, 0, 0)" /><path d="M 50 50 L 250 50 L 243.18516525781365 101.76380902050414" fill="#FFFFFF" transform-origin="50 50" transform="rotate(285, 0, 0)" /><path d="M 50 50 L 250 50 L 243.18516525781365 101.76380902050414" fill="#f7f7f7" transform-origin="50 50" transform="rotate(300, 0, 0)" /><path d="M 50 50 L 250 50 L 243.18516525781365 101.76380902050414" fill="#FFFFFF" transform-origin="50 50" transform="rotate(315, 0, 0)" /><path d="M 50 50 L 250 50 L 243.18516525781365 101.76380902050414" fill="#f7f7f7" transform-origin="50 50" transform="rotate(330, 0, 0)" /><path d="M 50 50 L 250 50 L 243.18516525781365 101.76380902050414" fill="#FFFFFF" transform-origin="50 50" transform="rotate(345, 0, 0)" />    
  </g>
</svg>